<?xml version="1.0" encoding="UTF-8" standalone="no"?>
<svg
   width="367.27274pt"
   height="244.18182pt"
   viewBox="0 0 367.27274 244.18182"
   version="1.1"
   id="svg78"
   sodipodi:docname="pitch.svg"
   inkscape:export-filename="pitch.svg"
   inkscape:export-xdpi="96"
   inkscape:export-ydpi="96"
   xmlns:inkscape="http://www.inkscape.org/namespaces/inkscape"
   xmlns:sodipodi="http://sodipodi.sourceforge.net/DTD/sodipodi-0.dtd"
   xmlns="http://www.w3.org/2000/svg"
   xmlns:svg="http://www.w3.org/2000/svg"
   xmlns:rdf="http://www.w3.org/1999/02/22-rdf-syntax-ns#"
   xmlns:cc="http://creativecommons.org/ns#"
   xmlns:dc="http://purl.org/dc/elements/1.1/">
  <sodipodi:namedview
     id="namedview80"
     pagecolor="#ffffff"
     bordercolor="#000000"
     borderopacity="0.25"
     inkscape:showpageshadow="2"
     inkscape:pageopacity="0.0"
     inkscape:pagecheckerboard="0"
     inkscape:deskcolor="#d1d1d1"
     inkscape:document-units="pt"
     showgrid="false" />
  <metadata
     id="metadata2">
    <rdf:RDF>
      <cc:Work>
        <dc:type
           rdf:resource="http://purl.org/dc/dcmitype/StillImage" />
        <dc:date>2024-05-08T13:47:44.325582</dc:date>
        <dc:format>image/svg+xml</dc:format>
        <dc:creator>
          <cc:Agent>
            <dc:title>Matplotlib v3.8.0, https://matplotlib.org/</dc:title>
          </cc:Agent>
        </dc:creator>
      </cc:Work>
    </rdf:RDF>
  </metadata>
  <defs
     id="defs6">
    <style
       type="text/css"
       id="style4">*{stroke-linejoin: round; stroke-linecap: butt}</style>
  </defs>
  <path
     d="m 469.63636,174.27273 h -18.16363 v -60.54546 h 18.16363"
     clip-path="url(#pf8b34da0d0)"
     style="fill:none;stroke:#FFFFFF;stroke-width:2;stroke-linecap:square"
     id="path23"
     transform="translate(-104.36364,-21.909092)" />
  <path
     d="m 106.36364,210.6 h 54.4909 V 77.4 h -54.4909"
     clip-path="url(#pf8b34da0d0)"
     style="fill:none;stroke:#FFFFFF;stroke-width:2;stroke-linecap:square"
     id="path20"
     transform="translate(-104.36364,-21.909092)" />
  <path
     d="m 106.36364,174.27273 h 18.16363 v -60.54546 h -18.16363"
     clip-path="url(#pf8b34da0d0)"
     style="fill:none;stroke:#FFFFFF;stroke-width:2;stroke-linecap:square"
     id="path26"
     transform="translate(-104.36364,-21.909092)" />
  <path
     d="m 288,113.72727 c 8.02842,0 15.7291,3.18973 21.40605,8.86668 5.67695,5.67695 8.86668,13.37763 8.86668,21.40605 0,8.02842 -3.18973,15.7291 -8.86668,21.40605 -5.67695,5.67695 -13.37763,8.86668 -21.40605,8.86668 -8.02842,0 -15.7291,-3.18973 -21.40605,-8.86668 C 260.917,159.7291 257.72727,152.02842 257.72727,144 c 0,-8.02842 3.18973,-15.7291 8.86668,-21.40605 5.67695,-5.67695 13.37763,-8.86668 21.40605,-8.86668 z"
     clip-path="url(#pf8b34da0d0)"
     style="fill:none;stroke:#FFFFFF;stroke-width:2;stroke-linejoin:miter"
     id="path29"
     transform="translate(-104.36364,-21.909092)" />
  <path
     d="m 469.63636,210.6 h -54.4909 V 77.4 h 54.4909"
     clip-path="url(#pf8b34da0d0)"
     style="fill:none;stroke:#FFFFFF;stroke-width:2;stroke-linecap:square"
     id="path17"
     transform="translate(-104.36364,-21.909092)" />
  <path
     d="m 160.88839,119.80724 c 3.74992,2.82064 6.79319,6.4749 8.88873,10.67331 2.09554,4.19842 3.18652,8.82712 3.18652,13.51945 0,4.69233 -1.09098,9.32103 -3.18652,13.51944 -2.09554,4.19842 -5.13881,7.85268 -8.88873,10.67332"
     clip-path="url(#pf8b34da0d0)"
     style="fill:none;stroke:#FFFFFF;stroke-width:2;stroke-linejoin:miter"
     id="path32"
     transform="translate(-104.36364,-21.909092)" />
  <path
     d="m 415.11161,168.19276 c -3.74992,-2.82064 -6.79319,-6.4749 -8.88873,-10.67332 -2.09554,-4.19841 -3.18652,-8.82711 -3.18652,-13.51944 0,-4.69233 1.09098,-9.32103 3.18652,-13.51945 2.09554,-4.19841 5.13881,-7.85267 8.88873,-10.67331"
     clip-path="url(#pf8b34da0d0)"
     style="fill:none;stroke:#FFFFFF;stroke-width:2;stroke-linejoin:miter"
     id="path35"
     transform="translate(-104.36364,-21.909092)" />
  <path
     d="m 288,143.27346 c 0.19268,0 0.3775,0.0765 0.51374,0.21279 0.13625,0.13625 0.2128,0.32107 0.2128,0.51375 0,0.19268 -0.0765,0.3775 -0.2128,0.51374 -0.13624,0.13625 -0.32106,0.2128 -0.51374,0.2128 -0.19268,0 -0.3775,-0.0765 -0.51374,-0.2128 -0.13625,-0.13624 -0.2128,-0.32106 -0.2128,-0.51374 0,-0.19268 0.0765,-0.3775 0.2128,-0.51375 0.13624,-0.13624 0.32106,-0.21279 0.51374,-0.21279 z"
     clip-path="url(#pf8b34da0d0)"
     style="fill:#b0b0b0;stroke:#FFFFFF;stroke-linejoin:miter"
     id="path38"
     inkscape:label="path38"
     transform="translate(-104.36364,-21.909092)" />
  <path
     d="m 142.69091,143.27346 c 0.19268,0 0.3775,0.0765 0.51374,0.21279 0.13625,0.13625 0.2128,0.32107 0.2128,0.51375 0,0.19268 -0.0765,0.3775 -0.2128,0.51374 -0.13624,0.13625 -0.32106,0.2128 -0.51374,0.2128 -0.19268,0 -0.3775,-0.0765 -0.51375,-0.2128 -0.13624,-0.13624 -0.2128,-0.32106 -0.2128,-0.51374 0,-0.19268 0.0766,-0.3775 0.2128,-0.51375 0.13625,-0.13624 0.32107,-0.21279 0.51375,-0.21279 z"
     clip-path="url(#pf8b34da0d0)"
     style="fill:#b0b0b0;stroke:#FFFFFF;stroke-linejoin:miter"
     id="path41"
     transform="translate(-104.36364,-21.909092)" />
  <path
     d="m 106.36364,131.89091 v 24.21818"
     clip-path="url(#pf8b34da0d0)"
     style="fill:none;stroke:#FFFFFF;stroke-width:4;stroke-linecap:square"
     id="path50"
     transform="translate(-104.36364,-21.909092)" />
  <path
     d="M 288,265.09091 V 22.909091 H 469.63636 V 265.09091 H 106.36364 V 22.909091 H 288"
     clip-path="url(#pf8b34da0d0)"
     style="fill:none;stroke:#FFFFFF;stroke-width:2;stroke-linecap:square"
     id="path14"
     transform="translate(-104.36364,-21.909092)" />
  <path
     d="m 469.63636,131.89091 v 24.21818"
     clip-path="url(#pf8b34da0d0)"
     style="fill:none;stroke:#FFFFFF;stroke-width:4;stroke-linecap:square"
     id="path47"
     transform="translate(-104.36364,-21.909092)" />
  <path
     d="m 433.30909,143.27346 c 0.19268,0 0.3775,0.0765 0.51375,0.21279 0.13624,0.13625 0.2128,0.32107 0.2128,0.51375 0,0.19268 -0.0766,0.3775 -0.2128,0.51374 -0.13625,0.13625 -0.32107,0.2128 -0.51375,0.2128 -0.19268,0 -0.3775,-0.0765 -0.51374,-0.2128 -0.13625,-0.13624 -0.21281,-0.32106 -0.21281,-0.51374 0,-0.19268 0.0766,-0.3775 0.21281,-0.51375 0.13624,-0.13624 0.32106,-0.21279 0.51374,-0.21279 z"
     clip-path="url(#pf8b34da0d0)"
     style="fill:#b0b0b0;stroke:#FFFFFF;stroke-linejoin:miter"
     id="path44"
     inkscape:label="path44"
     transform="translate(-104.36364,-21.909092)" />
  <defs
     id="defs76">
    <clipPath
       id="pf8b34da0d0">
      <rect
         x="94.254547"
         y="10.8"
         width="387.49091"
         height="266.39999"
         id="rect73" />
    </clipPath>
  </defs>
</svg>
